<svg width="49" height="35" viewBox="0 0 49 35" fill="none" xmlns="http://www.w3.org/2000/svg">
<g opacity="0.93">
<path opacity="0.93" fill-rule="evenodd" clip-rule="evenodd" d="M48.4172 0C47.9193 1.14668 46.5312 1.5088 45.5655 2.17267C42.548 4.36041 39.3946 7.64957 35.864 9.611C33.6099 11.5937 31.2257 13.4234 28.7274 15.0879C27.4751 16.0234 26.4341 17.2002 25.2421 18.1055C20.1273 22.0284 15.2992 25.6495 10.1542 29.5572C9.6261 29.9495 9.03767 30.3569 8.41907 30.7794C7.01589 31.745 5.40148 33.0576 4.02848 33.797C3.44223 34.2204 2.73743 34.4483 2.01424 34.4483C1.29105 34.4483 0.586255 34.2204 0 33.797C0.241407 32.0468 2.67057 30.3418 4.88849 28.5313C8.61521 25.5137 13.9412 21.5154 17.7887 18.8146C20.6856 16.7325 23.5975 14.5749 26.4944 12.6739C29.3913 10.7728 32.3033 8.72082 35.2303 6.97062C37.3728 5.70323 39.6209 4.72252 41.7181 3.56075C43.8153 2.39898 46.1389 1.11651 48.4172 0Z" fill="white"/>
</g>
</svg>
