<svg width="545" height="512" viewBox="0 0 545 512" fill="none" xmlns="http://www.w3.org/2000/svg">
<g opacity="0.93">
<path opacity="0.93" fill-rule="evenodd" clip-rule="evenodd" d="M404.083 247.92C403.585 249.051 402.197 249.428 401.231 250.092C398.214 252.265 395.06 255.554 391.53 257.531C389.274 259.493 386.89 261.302 384.393 262.947C383.156 263.883 382.1 265.06 380.908 265.965C375.808 269.888 370.965 273.509 365.745 277.417C365.216 277.809 364.628 278.216 364.009 278.639C362.606 279.604 360.992 280.917 359.619 281.656C359.033 282.08 358.328 282.308 357.605 282.308C356.881 282.308 356.177 282.08 355.59 281.656C355.832 279.906 358.276 278.201 360.479 276.375C364.206 273.358 369.532 269.375 373.394 266.674C376.276 264.592 379.188 262.419 382.085 260.533C384.982 258.647 387.894 256.58 390.821 254.83C392.963 253.563 395.211 252.582 397.309 251.42C399.406 250.258 401.805 249.021 404.083 247.92Z" fill="white"/>
</g>
<g opacity="0.93">
<path opacity="0.93" fill-rule="evenodd" clip-rule="evenodd" d="M340.291 445.33C339.99 446.009 339.175 446.22 338.601 446.628C336.779 448.239 334.87 449.75 332.883 451.154C331.55 452.319 330.144 453.397 328.674 454.383C327.934 454.956 327.316 455.665 326.622 456.193C323.604 458.547 320.752 460.72 317.674 463.058L316.648 463.798C315.819 464.371 314.883 465.156 314.053 465.638C313.711 465.892 313.295 466.029 312.869 466.029C312.443 466.029 312.027 465.892 311.685 465.638C311.82 464.582 313.193 463.571 314.566 462.485C316.754 460.644 319.938 458.275 322.11 456.661C323.83 455.409 325.535 454.111 327.255 452.98C328.975 451.848 330.68 450.611 332.4 449.57C333.668 448.8 334.995 448.212 336.233 447.518C337.47 446.824 338.948 446.009 340.291 445.33Z" fill="white"/>
</g>
<path fill-rule="evenodd" clip-rule="evenodd" d="M544.493 0C543.98 1.13159 542.607 1.5088 541.626 2.17267C538.608 4.34533 535.455 7.6345 531.939 9.61101C529.678 11.5659 527.294 13.375 524.803 15.0276C523.551 15.963 522.494 17.1399 521.318 18.0452C516.203 21.968 511.36 25.5891 506.139 29.4969C505.611 29.8892 505.023 30.2966 504.419 30.719C503.001 31.6847 501.401 32.9973 500.013 33.7366C499.429 34.1588 498.727 34.386 498.007 34.386C497.286 34.386 496.584 34.1588 496 33.7366C496.226 31.9864 498.671 30.2815 500.888 28.4558C504.6 25.4382 509.941 21.455 513.789 18.7543C516.686 16.6722 519.598 14.5146 522.494 12.6135C525.391 10.7124 528.288 8.66047 531.23 6.91027C533.373 5.64289 535.606 4.66218 537.703 3.5004C539.8 2.33863 542.199 1.13159 544.493 0Z" fill="url(#paint0_linear_1_94)"/>
<path d="M432.765 352.464C433.323 352.464 433.776 352.011 433.776 351.453C433.776 350.894 433.323 350.442 432.765 350.442C432.207 350.442 431.754 350.894 431.754 351.453C431.754 352.011 432.207 352.464 432.765 352.464Z" fill="#1B1633"/>
<path d="M353.614 342.038C354.172 342.038 354.625 341.586 354.625 341.027C354.625 340.469 354.172 340.016 353.614 340.016C353.056 340.016 352.603 340.469 352.603 341.027C352.603 341.586 353.056 342.038 353.614 342.038Z" fill="#1B1633"/>
<path d="M384.725 325.819C385.284 325.819 385.736 325.366 385.736 324.808C385.736 324.25 385.284 323.797 384.725 323.797C384.167 323.797 383.714 324.25 383.714 324.808C383.714 325.366 384.167 325.819 384.725 325.819Z" fill="#1B1633"/>
<path d="M271.626 227.928C272.184 227.928 272.637 227.476 272.637 226.918C272.637 226.359 272.184 225.907 271.626 225.907C271.068 225.907 270.615 226.359 270.615 226.918C270.615 227.476 271.068 227.928 271.626 227.928Z" fill="#1B1633"/>
<path d="M328.734 271.2C329.292 271.2 329.745 270.748 329.745 270.189C329.745 269.631 329.292 269.178 328.734 269.178C328.176 269.178 327.723 269.631 327.723 270.189C327.723 270.748 328.176 271.2 328.734 271.2Z" fill="#1B1633"/>
<path d="M53.9525 340.62C54.5108 340.62 54.9634 340.167 54.9634 339.609C54.9634 339.051 54.5108 338.598 53.9525 338.598C53.3942 338.598 52.9417 339.051 52.9417 339.609C52.9417 340.167 53.3942 340.62 53.9525 340.62Z" fill="#1B1633"/>
<path d="M342.947 212.704C343.505 212.704 343.957 212.252 343.957 211.693C343.957 211.135 343.505 210.682 342.947 210.682C342.388 210.682 341.936 211.135 341.936 211.693C341.936 212.252 342.388 212.704 342.947 212.704Z" fill="#1B1633"/>
<path d="M166.388 139.528C167.146 139.528 167.761 138.913 167.761 138.155C167.761 137.396 167.146 136.782 166.388 136.782C165.629 136.782 165.015 137.396 165.015 138.155C165.015 138.913 165.629 139.528 166.388 139.528Z" fill="#1B1633"/>
<path d="M414.343 392.718C415.176 392.718 415.851 392.043 415.851 391.209C415.851 390.376 415.176 389.701 414.343 389.701C413.509 389.701 412.834 390.376 412.834 391.209C412.834 392.043 413.509 392.718 414.343 392.718Z" fill="#1B1633"/>
<path d="M265.093 504.867C265.926 504.867 266.602 504.191 266.602 503.358C266.602 502.525 265.926 501.849 265.093 501.849C264.26 501.849 263.584 502.525 263.584 503.358C263.584 504.191 264.26 504.867 265.093 504.867Z" fill="#1B1633"/>
<path d="M276.409 288.325C277.242 288.325 277.918 287.649 277.918 286.816C277.918 285.983 277.242 285.307 276.409 285.307C275.576 285.307 274.9 285.983 274.9 286.816C274.9 287.649 275.576 288.325 276.409 288.325Z" fill="#1B1633"/>
<path d="M104.935 441.241C105.768 441.241 106.443 440.566 106.443 439.732C106.443 438.899 105.768 438.224 104.935 438.224C104.101 438.224 103.426 438.899 103.426 439.732C103.426 440.566 104.101 441.241 104.935 441.241Z" fill="#1B1633"/>
<path d="M56.4873 354.471C57.3206 354.471 57.9961 353.795 57.9961 352.962C57.9961 352.129 57.3206 351.453 56.4873 351.453C55.654 351.453 54.9785 352.129 54.9785 352.962C54.9785 353.795 55.654 354.471 56.4873 354.471Z" fill="#1B1633"/>
<path d="M321.175 478.795C322.008 478.795 322.684 478.12 322.684 477.286C322.684 476.453 322.008 475.778 321.175 475.778C320.342 475.778 319.666 476.453 319.666 477.286C319.666 478.12 320.342 478.795 321.175 478.795Z" fill="#1B1633"/>
<path d="M412.834 286.816C413.667 286.816 414.343 286.14 414.343 285.307C414.343 284.474 413.667 283.798 412.834 283.798C412.001 283.798 411.325 284.474 411.325 285.307C411.325 286.14 412.001 286.816 412.834 286.816Z" fill="#B44538"/>
<path d="M338.212 391.355C339.296 390.271 339.262 388.48 338.137 387.355C337.012 386.229 335.22 386.196 334.136 387.28C333.052 388.364 333.085 390.155 334.211 391.281C335.336 392.406 337.128 392.44 338.212 391.355Z" fill="#B44538"/>
<path d="M187.979 241.99C188.812 241.99 189.487 241.314 189.487 240.481C189.487 239.648 188.812 238.972 187.979 238.972C187.145 238.972 186.47 239.648 186.47 240.481C186.47 241.314 187.145 241.99 187.979 241.99Z" fill="#B44538"/>
<path d="M48.204 347.289C49.0373 347.289 49.7128 346.613 49.7128 345.78C49.7128 344.947 49.0373 344.271 48.204 344.271C47.3708 344.271 46.6953 344.947 46.6953 345.78C46.6953 346.613 47.3708 347.289 48.204 347.289Z" fill="#B44538"/>
<path d="M1.88398 327.343C2.71726 327.343 3.39277 326.667 3.39277 325.834C3.39277 325.001 2.71726 324.325 1.88398 324.325C1.05069 324.325 0.375183 325.001 0.375183 325.834C0.375183 326.667 1.05069 327.343 1.88398 327.343Z" fill="#B44538"/>
<path d="M366.212 511.973C367.046 511.973 367.721 511.298 367.721 510.464C367.721 509.631 367.046 508.956 366.212 508.956C365.379 508.956 364.703 509.631 364.703 510.464C364.703 511.298 365.379 511.973 366.212 511.973Z" fill="#B44538"/>
<path d="M120.189 485.328C121.022 485.328 121.697 484.653 121.697 483.82C121.697 482.986 121.022 482.311 120.189 482.311C119.355 482.311 118.68 482.986 118.68 483.82C118.68 484.653 119.355 485.328 120.189 485.328Z" fill="#B44538"/>
<defs>
<linearGradient id="paint0_linear_1_94" x1="542.481" y1="24.0623" x2="504.053" y2="0.471244" gradientUnits="userSpaceOnUse">
<stop stop-color="#860752"/>
<stop offset="1" stop-color="#FFD9A8"/>
</linearGradient>
</defs>
</svg>
