<svg width="49" height="35" viewBox="0 0 49 35" fill="none" xmlns="http://www.w3.org/2000/svg">
<path fill-rule="evenodd" clip-rule="evenodd" d="M48.4926 0C47.9796 1.14668 46.5915 1.5088 45.6259 2.17267C42.6083 4.36042 39.4549 7.64957 35.9394 9.611C33.6777 11.5658 31.294 13.375 28.8029 15.0276C27.5506 15.963 26.4944 17.155 25.3175 18.0452C20.2027 21.968 15.3595 25.5891 10.1391 29.4969C9.61101 29.8892 9.02258 30.3117 8.40398 30.719C7.0008 31.6847 5.38638 32.9973 4.01338 33.7366C3.42945 34.1588 2.72725 34.386 2.00669 34.386C1.28613 34.386 0.583929 34.1588 0 33.7366C0.226319 31.9864 2.67056 30.2815 4.87339 28.4709C8.60011 25.4533 14.0016 21.455 17.7887 18.7543C20.6856 16.6722 23.5824 14.5146 26.4793 12.6135C29.3762 10.7124 32.2882 8.67556 35.2303 6.92535C37.3728 5.64288 39.6058 4.66218 41.703 3.50041C43.8003 2.33864 46.1992 1.13159 48.4926 0Z" fill="url(#paint0_linear_1_400)"/>
<defs>
<linearGradient id="paint0_linear_1_400" x1="46.4814" y1="24.0623" x2="8.05339" y2="0.471225" gradientUnits="userSpaceOnUse">
<stop stop-color="#860752"/>
<stop offset="1" stop-color="#FFD9A8"/>
</linearGradient>
</defs>
</svg>
